<svg width="747" height="747" viewBox="0 0 747 747" fill="none" xmlns="http://www.w3.org/2000/svg">
<path d="M11.9997 93.3333C18.4423 93.3333 23.6663 88.1093 23.6663 81.6667V23.3333H93.6663C100.109 23.3333 105.333 18.1093 105.333 11.6667C105.333 5.224 100.109 0 93.6663 0H11.9997C5.55701 0 0.333008 5.224 0.333008 11.6667V81.6667C0.333008 88.1093 5.55701 93.3333 11.9997 93.3333Z" fill="black"/>
<path d="M735.333 0H653.667C647.224 0 642 5.224 642 11.6667C642 18.1093 647.224 23.3333 653.667 23.3333H723.667V81.6667C723.667 88.1093 728.891 93.3333 735.333 93.3333C741.776 93.3333 747 88.1093 747 81.6667V11.6667C747 5.224 741.776 0 735.333 0Z" fill="black"/>
<path d="M93.6663 723.333H23.6663V665C23.6663 658.557 18.4423 653.333 11.9997 653.333C5.55701 653.333 0.333008 658.557 0.333008 665V735C0.333008 741.443 5.55701 746.667 11.9997 746.667H93.6663C100.109 746.667 105.333 741.443 105.333 735C105.333 728.557 100.109 723.333 93.6663 723.333Z" fill="black"/>
<path d="M735.333 653.333C728.891 653.333 723.667 658.557 723.667 665V723.333H653.667C647.224 723.333 642 728.557 642 735C642 741.443 647.224 746.667 653.667 746.667H735.333C741.776 746.667 747 741.443 747 735V665C747 658.557 741.776 653.333 735.333 653.333Z" fill="black"/>
</svg>
