<svg width="673" height="661" viewBox="0 0 673 661" fill="none" xmlns="http://www.w3.org/2000/svg">
<path d="M336.666 0.494629C151.079 0.494629 0.666016 130.041 0.666016 289.841C0.666016 352.388 23.7233 410.273 62.9007 457.601C73.9059 470.882 77.7287 474.461 77.7287 474.461C89.7339 485.659 97.5514 505.841 95.1034 519.3C92.6555 532.764 90.6398 543.759 90.6398 543.759L72.5037 643.139C69.5559 659.295 78.2849 664.988 91.8944 655.79L174.858 599.759L209.713 576.218C219.921 569.327 238.125 565.837 250.15 568.489C250.15 568.489 298.729 579.166 336.661 579.166C522.208 579.166 672.661 449.619 672.661 289.859C672.666 130.046 522.234 0.498896 336.661 0.498896L336.666 0.494629ZM191.066 338.375C164.259 338.375 142.535 316.629 142.535 289.844C142.535 263.027 164.265 241.297 191.066 241.297C217.873 241.297 239.597 263.027 239.597 289.844C239.597 316.631 217.867 338.375 191.066 338.375V338.375ZM336.666 338.375C309.859 338.375 288.135 316.629 288.135 289.844C288.135 263.027 309.865 241.297 336.666 241.297C363.473 241.297 385.197 263.027 385.197 289.844C385.197 316.631 363.473 338.375 336.666 338.375ZM482.266 338.375C455.459 338.375 433.735 316.629 433.735 289.844C433.735 263.027 455.465 241.297 482.266 241.297C509.073 241.297 530.797 263.027 530.797 289.844C530.802 316.631 509.073 338.375 482.266 338.375Z" fill="black"/>
</svg>
