<svg width="288" height="279" viewBox="0 0 288 279" fill="none" xmlns="http://www.w3.org/2000/svg">
<path d="M15.1605 186.974C6.9469 186.974 0.228516 193.693 0.228516 201.906V222.436C0.228516 253.348 25.3899 278.51 56.3019 278.51H231.022C261.934 278.51 287.095 253.348 287.095 222.436V201.906C287.095 193.692 280.376 186.974 272.163 186.974C263.95 186.974 257.231 193.693 257.231 201.906V222.436C257.231 236.848 245.507 248.644 231.023 248.644L56.3032 248.65C41.8912 248.65 30.0952 236.926 30.0952 222.442V201.911C30.0952 193.619 23.4493 186.974 15.1632 186.974L15.1605 186.974Z" fill="black"/>
<path d="M143.667 0.160156C135.453 0.160156 128.735 6.87896 128.735 15.0922V165.612L89.9852 126.863C84.1623 121.04 74.6785 121.04 68.8545 126.863C63.0316 132.686 63.0316 142.169 68.8545 147.993L133.068 212.207C133.443 212.582 133.813 212.806 134.261 213.176C134.636 213.472 134.932 213.775 135.307 214.071C135.906 214.446 136.5 214.743 137.099 215.04C137.323 215.191 137.62 215.337 137.844 215.415C138.589 215.712 139.412 215.936 140.157 216.16C140.308 216.16 140.453 216.233 140.604 216.311C141.573 216.535 142.62 216.608 143.589 216.608C144.558 216.608 145.604 216.535 146.573 216.311C146.724 216.311 146.87 216.238 147.021 216.16C147.844 216.009 148.589 215.785 149.334 215.415C149.631 215.342 149.855 215.118 150.078 215.04C150.677 214.743 151.271 214.441 151.87 214.071C152.245 213.847 152.615 213.472 152.917 213.176C153.292 212.879 153.74 212.577 154.11 212.207L218.323 147.993C224.146 142.171 224.146 132.687 218.323 126.863C212.5 121.04 203.016 121.04 197.192 126.863L158.599 165.612V15.0922C158.599 6.87856 151.88 0.160156 143.667 0.160156Z" fill="black"/>
</svg>
