<svg viewBox="0 0 200 200" xmlns="http://www.w3.org/2000/svg"><g fill="#efefef"><path d="m166.67 0h-133.34a33.37 33.37 0 0 0 -33.33 33.33v100a33.37 33.37 0 0 0 33.33 33.33h112.93l25 28.08c.11.13.23.24.34.36a16.67 16.67 0 0 0 28.4-11.78v-150a33.38 33.38 0 0 0 -33.33-33.32zm16.67 183.3-27.11-30.49a1.45 1.45 0 0 0 -.18-.17c-.2-.21-.42-.4-.65-.6a6.86 6.86 0 0 0 -.59-.48 8.18 8.18 0 0 0 -.7-.43c-.24-.13-.46-.27-.7-.38a6.71 6.71 0 0 0 -.75-.27 7.75 7.75 0 0 0 -.78-.24c-.25-.06-.5-.08-.75-.12a6.69 6.69 0 0 0 -.89-.08h-.24-116.67a16.69 16.69 0 0 1 -16.67-16.67v-100a16.68 16.68 0 0 1 16.67-16.7h133.34a16.68 16.68 0 0 1 16.67 16.66z"/><path d="m100 116.67a8.33 8.33 0 0 0 -8.33 8.33v4.16a8.33 8.33 0 1 0 16.66 0v-4.16a8.33 8.33 0 0 0 -8.33-8.33z"/><path d="m100 29.17a15.48 15.48 0 0 0 -15.32 17.73l7.07 50.1a8.33 8.33 0 0 0 16.5 0l7-50a15.48 15.48 0 0 0 -15.25-17.83z"/></g></svg>