<svg width="688" height="748" viewBox="0 0 688 748" fill="none" xmlns="http://www.w3.org/2000/svg">
<path d="M203.666 654.333V80.5732L327.098 204.005L360 171.104L196.666 7.77053C192.297 3.4268 186.38 0.984131 180.218 0.984131C174.052 0.984131 168.14 3.4268 163.765 7.77053L0.431641 171.104L33.5676 204.24L157 80.5732V654.333C157 686.531 180.333 747.667 273.666 747.667H343.666V701H273.666C208.333 701 203.666 661.803 203.666 654.333Z" fill="black"/>
<path d="M654.76 544.426L531.328 668.093V94.3331C531.328 62.1358 507.995 0.999756 414.661 0.999756H344.661V47.6664H414.661C479.995 47.6664 484.661 86.8638 484.661 94.3331V668.093L361.229 544.661L328.328 577.562L491.661 740.896C496.031 745.24 501.948 747.682 508.109 747.682C514.276 747.682 520.188 745.24 524.563 740.896L687.896 577.562L654.76 544.426Z" fill="black"/>
</svg>
