<svg width="607" height="607" viewBox="0 0 607 607" fill="none" xmlns="http://www.w3.org/2000/svg">
<path d="M245.786 120.24C222.078 125.699 202.948 143.147 195.338 166.251L138.708 336.464L27.3383 447.88C4.24494 471.511 -4.61506 505.599 4.05694 537.484C12.734 569.364 37.641 594.271 69.521 602.948C101.406 611.62 135.494 602.761 159.125 579.667L270.541 468.271L440.874 411.547V411.552C463.896 403.88 481.306 384.839 486.885 361.224C492.458 337.604 485.406 312.787 468.245 295.631L311.445 138.831C294.309 121.591 269.418 114.544 245.789 120.237L245.786 120.24Z" fill="black"/>
<path d="M483.826 90.1864L434.405 139.602C429.905 143.951 427.337 149.925 427.285 156.186C427.228 162.442 429.691 168.462 434.118 172.884C438.54 177.311 444.561 179.774 450.816 179.717C457.076 179.665 463.05 177.097 467.4 172.597L516.821 123.176H516.816C521.321 118.827 523.889 112.853 523.941 106.597C523.993 100.337 521.535 94.3214 517.108 89.8947C512.681 85.4676 506.665 83.0092 500.405 83.0614C494.15 83.1134 488.176 85.6811 483.826 90.1864Z" fill="black"/>
<path d="M428.413 3.44818C422.871 0.682584 416.46 0.229386 410.59 2.18777C404.715 4.14617 399.861 8.36484 397.101 13.9014L364.153 79.7707C360.424 87.2291 360.955 96.1094 365.544 103.068C370.137 110.026 378.096 114.011 386.418 113.511C394.741 113.016 402.164 108.115 405.897 100.657L438.845 34.7606L438.84 34.7658C441.611 29.2294 442.069 22.8179 440.111 16.9484C438.157 11.0735 433.949 6.21898 428.413 3.44818Z" fill="black"/>
<path d="M495.907 232.427C498.678 237.963 503.532 242.171 509.407 244.125C515.276 246.083 521.688 245.625 527.224 242.854L593.093 209.906C598.677 207.171 602.937 202.317 604.927 196.427C606.922 190.531 606.479 184.089 603.698 178.526C600.916 172.963 596.031 168.739 590.119 166.791C584.213 164.849 577.775 165.343 572.228 168.166L506.332 201.114L506.337 201.109C500.801 203.88 496.593 208.734 494.634 214.609C492.681 220.479 493.134 226.89 495.905 232.426L495.907 232.427Z" fill="black"/>
</svg>
