<svg width="704" height="599" viewBox="0 0 704 599" fill="none" xmlns="http://www.w3.org/2000/svg">
<path d="M233.546 292.04C272.224 292.04 309.317 276.676 336.666 249.327C364.016 221.977 379.38 184.884 379.38 146.207C379.38 107.529 364.016 70.436 336.666 43.0866C309.317 15.7373 272.224 0.373291 233.546 0.373291C194.869 0.373291 157.776 15.7373 130.426 43.0866C103.077 70.436 87.7129 107.529 87.7129 146.207C87.7546 184.868 103.134 221.941 130.473 249.28C157.812 276.619 194.885 291.999 233.546 292.04V292.04ZM233.546 29.5333C264.489 29.5333 294.161 41.825 316.041 63.7053C337.921 85.5856 350.213 115.257 350.213 146.2C350.213 177.143 337.921 206.815 316.041 228.695C294.161 250.575 264.489 262.867 233.546 262.867C202.604 262.867 172.932 250.575 151.052 228.695C129.172 206.814 116.88 177.143 116.88 146.2C116.916 115.268 129.218 85.616 151.088 63.7413C172.962 41.872 202.614 29.5693 233.546 29.5333Z" fill="black"/>
<path d="M233.546 321.213C104.885 321.213 0.212891 425.885 0.212891 554.547V583.713C0.212891 587.583 1.74928 591.292 4.48368 594.026C7.21808 596.76 10.9264 598.297 14.7962 598.297H452.29C456.159 598.297 459.868 596.76 462.602 594.026C465.337 591.292 466.873 587.583 466.873 583.713V554.547C466.873 425.885 362.201 321.213 233.54 321.213H233.546ZM437.706 569.133H29.3729V554.549C29.3729 441.965 120.957 350.389 233.533 350.389C346.109 350.389 437.693 441.973 437.693 554.549L437.706 569.133Z" fill="black"/>
<path d="M513.547 294.96C545.26 294.96 575.678 282.361 598.104 259.933C620.531 237.507 633.131 207.089 633.131 175.376C633.131 143.663 620.532 113.245 598.104 90.8187C575.678 68.392 545.26 55.792 513.547 55.792C481.834 55.792 451.416 68.3909 428.99 90.8187C406.563 113.245 393.963 143.663 393.963 175.376C393.999 207.079 406.609 237.475 429.026 259.897C451.447 282.313 481.843 294.924 513.547 294.96ZM513.547 84.96C537.526 84.96 560.526 94.486 577.479 111.444C594.438 128.397 603.963 151.397 603.963 175.376C603.963 199.355 594.437 222.355 577.479 239.308C560.526 256.267 537.526 265.792 513.547 265.792C489.568 265.792 466.568 256.266 449.615 239.308C432.656 222.355 423.131 199.355 423.131 175.376C423.157 151.403 432.693 128.423 449.642 111.469C466.595 94.5213 489.574 84.9853 513.548 84.9587L513.547 84.96Z" fill="black"/>
<path d="M513.546 312.453C475.765 312.391 438.833 323.672 407.541 344.839C400.864 349.349 399.109 358.417 403.619 365.089C408.129 371.766 417.198 373.516 423.874 369.006C456.207 347.219 495.374 337.954 534.046 342.943C572.718 347.928 608.248 366.829 633.999 396.11C659.748 425.391 673.958 463.042 673.963 502.037V510.787H499.39C491.332 510.787 484.806 517.318 484.806 525.371C484.806 533.423 491.332 539.955 499.39 539.955H688.55C692.419 539.955 696.128 538.418 698.862 535.684C701.597 532.949 703.133 529.241 703.133 525.371V502.038C703.076 451.773 683.086 403.585 647.545 368.038C612.004 332.491 563.816 312.507 513.545 312.45L513.546 312.453Z" fill="black"/>
</svg>
