<svg width="701" height="571" viewBox="0 0 701 571" fill="none" xmlns="http://www.w3.org/2000/svg">
<path d="M244.013 267.333C279.383 267.333 313.3 253.281 338.311 228.271C363.316 203.265 377.368 169.344 377.363 133.973C377.363 98.6094 363.311 64.6868 338.3 39.6814C313.284 14.6761 279.368 0.629434 243.997 0.634767C208.628 0.634767 174.711 14.6921 149.705 39.7028C124.7 64.7188 110.659 98.6401 110.664 134.005C110.701 169.36 124.763 203.256 149.763 228.251C174.763 253.245 208.659 267.303 244.013 267.333V267.333Z" fill="black"/>
<path d="M418.453 377.494C384.666 342.832 341.308 319.035 293.926 309.134C246.541 299.232 197.286 303.68 152.446 321.91C107.608 340.139 69.2171 371.326 42.1811 411.478C15.1504 451.628 0.697115 498.931 0.675781 547.331C0.675781 553.518 3.13418 559.456 7.50911 563.831C11.884 568.206 17.8216 570.664 24.0091 570.664H464.076C470.263 570.664 476.196 568.206 480.576 563.831C484.951 559.456 487.409 553.518 487.409 547.331C487.498 522.591 483.68 497.987 476.091 474.435C464.794 438.028 445.045 404.81 418.455 377.487L418.453 377.494Z" fill="black"/>
<path d="M624.826 179.84C624.826 234.611 580.43 279.007 525.659 279.007C470.888 279.007 426.492 234.611 426.492 179.84C426.492 125.069 470.888 80.6733 525.659 80.6733C580.43 80.6733 624.826 125.069 624.826 179.84Z" fill="black"/>
<path d="M525.666 306.307C494.39 306.421 463.718 314.942 436.859 330.968C441.922 335.494 447.031 339.953 451.818 344.854C483.589 377.51 507.187 417.214 520.698 460.723C525.323 475.051 528.734 489.739 530.896 504.64H677.336C683.523 504.64 689.461 502.182 693.836 497.802C698.211 493.427 700.669 487.494 700.669 481.307C700.622 434.906 682.164 390.422 649.357 357.614C616.551 324.806 572.065 306.354 525.669 306.307L525.666 306.307Z" fill="black"/>
</svg>
