<svg width="747" height="650" viewBox="0 0 747 650" fill="none" xmlns="http://www.w3.org/2000/svg">
<path fill-rule="evenodd" clip-rule="evenodd" d="M464.974 618.613H570.766C590.448 618.613 606.459 602.603 606.459 582.92V304.267C606.459 298.407 609.808 293.058 615.079 290.501C620.35 287.934 626.62 288.605 631.229 292.225L671.328 323.725C683.401 333.204 700.932 331.1 710.416 319.027C715.01 313.178 717.052 305.892 716.166 298.506C715.275 291.126 711.567 284.533 705.718 279.938V279.933L400.598 40.2529C384.729 27.7841 362.562 27.7841 346.692 40.2529L41.5715 279.933C29.4986 289.417 27.3888 306.954 36.8736 319.026C46.3528 331.094 63.8896 333.204 75.9616 323.724L116.055 292.224C120.664 288.604 126.935 287.932 132.211 290.5C137.477 293.057 140.826 298.406 140.826 304.265V582.919C140.826 602.601 156.836 618.612 176.519 618.612H282.311V525.003C282.311 474.643 323.284 433.675 373.644 433.675C424.004 433.675 464.972 474.644 464.972 525.003L464.974 618.613ZM570.766 649.239H449.667C441.209 649.239 434.355 642.379 434.355 633.927V525.005C434.355 491.532 407.12 464.297 373.647 464.297C340.174 464.297 312.939 491.532 312.939 525.005V633.927C312.939 642.38 306.085 649.239 297.627 649.239H176.523C139.955 649.239 110.206 619.489 110.206 582.921V335.775L94.883 347.811C82.607 357.457 67.3043 361.743 51.795 359.884C36.295 358.019 22.4403 350.233 12.795 337.952C-7.11702 312.597 -2.69435 275.775 22.6543 255.864L327.774 16.1839C354.785 -5.02941 392.504 -5.02941 419.514 16.1839L724.634 255.864C736.916 265.51 744.702 279.359 746.566 294.864C748.431 310.369 744.145 325.671 734.499 337.952C724.848 350.233 710.999 358.02 695.493 359.884C679.999 361.748 664.687 357.457 652.405 347.811L637.083 335.775V582.921C637.083 619.489 607.333 649.239 570.765 649.239H570.766Z" fill="black"/>
</svg>
