<svg width="748" height="650" viewBox="0 0 748 650" fill="none" xmlns="http://www.w3.org/2000/svg">
<path fill-rule="evenodd" clip-rule="evenodd" d="M746.667 295.64C744.984 279.812 737.161 265.676 724.645 255.843L419.539 16.1759C392.528 -5.03746 354.809 -5.03746 327.799 16.1759L22.6919 255.843C10.1763 265.676 2.35328 279.812 0.670615 295.64C-1.00645 311.473 3.67582 326.937 13.8581 339.197C33.8941 363.307 70.5714 366.911 95.6234 347.234L110.243 335.749V582.896C110.243 619.464 139.989 649.208 176.555 649.208H281.061C289.519 649.208 296.373 642.354 296.373 633.901V540.297C296.373 498.38 330.471 464.281 372.389 464.281C414.306 464.281 448.405 498.38 448.405 540.297V633.901C448.405 642.354 455.264 649.208 463.717 649.208H570.785C607.353 649.208 637.097 619.463 637.097 582.896V335.749L651.711 347.234C676.774 366.916 713.451 363.307 733.482 339.197C743.664 326.937 748.346 311.473 746.67 295.64" fill="black"/>
</svg>
