<svg width="499" height="623" viewBox="0 0 499 623" fill="none" xmlns="http://www.w3.org/2000/svg">
<path d="M249.506 31.3335C249.506 23.0835 252.782 15.1669 258.621 9.33352C264.454 3.50019 272.366 0.224225 280.615 0.224225H467.282C475.537 0.224225 483.449 3.50019 489.282 9.33352C495.115 15.1669 498.396 23.0829 498.396 31.3335L498.396 591.334C498.396 599.584 495.115 607.5 489.282 613.334C483.449 619.167 475.537 622.443 467.282 622.443H280.615C269.501 622.443 259.23 616.516 253.673 606.891C248.115 597.266 248.115 585.402 253.673 575.776C259.23 566.151 269.501 560.224 280.615 560.224H436.175L436.175 62.4375H280.615C272.365 62.4375 264.454 59.1615 258.621 53.3282C252.782 47.4949 249.506 39.5789 249.506 31.3282V31.3335ZM3.10611 323.16C4.58531 326.978 6.80915 330.468 9.64248 333.426L134.085 457.868C141.976 465.764 153.481 468.842 164.257 465.957C175.038 463.066 183.46 454.644 186.345 443.869C189.236 433.088 186.152 421.582 178.262 413.692L106.704 342.446L342.838 342.446C353.952 342.446 364.223 336.519 369.78 326.894C375.338 317.269 375.338 305.405 369.78 295.78C364.223 286.154 353.952 280.228 342.838 280.228L106.704 280.228L178.262 208.982C184.152 203.139 187.465 195.185 187.465 186.894C187.465 178.597 184.152 170.644 178.262 164.806C172.418 158.916 164.47 155.603 156.174 155.603C147.878 155.603 139.929 158.916 134.086 164.806L9.64313 289.249C6.8098 292.207 4.58582 295.697 3.10676 299.515C-0.00257738 307.088 -0.00322842 315.588 3.10611 323.16Z" fill="black"/>
</svg>
