<svg width="677" height="678" viewBox="0 0 677 678" fill="none" xmlns="http://www.w3.org/2000/svg">
<path d="M105.333 386C98.89 386 93.666 380.776 93.666 374.334V292.667C93.6816 277.203 99.8379 262.375 110.77 251.438C121.707 240.505 136.535 234.349 151.999 234.333H221.999C228.442 234.333 233.666 239.557 233.666 246C233.666 252.443 228.442 257.667 221.999 257.667H151.999C142.718 257.677 133.822 261.37 127.259 267.927C120.702 274.49 117.009 283.386 116.999 292.667V374.334C116.999 377.428 115.77 380.396 113.582 382.584C111.395 384.771 108.426 386.001 105.332 386.001L105.333 386Z" fill="black"/>
<path d="M280.333 246C280.333 252.443 275.109 257.667 268.667 257.667C262.224 257.667 257 252.443 257 246C257 239.557 262.224 234.333 268.667 234.333C275.109 234.333 280.333 239.557 280.333 246Z" fill="black"/>
<path d="M595.333 141H366.826L466.993 40.8335L470.409 44.2501C474.987 48.672 482.263 48.6043 486.764 44.1043C491.265 39.6043 491.332 32.3283 486.91 27.7496L463.577 4.41629C458.998 -0.00557616 451.722 0.0621557 447.222 4.56213C442.721 9.0621 442.654 16.3381 447.076 20.9168L450.493 24.3335L338.659 136.167L226.826 24.3335L230.243 20.9168C232.493 18.7397 233.774 15.7553 233.8 12.6251C233.831 9.4948 232.597 6.4844 230.383 4.27613C228.175 2.06253 225.165 0.828264 222.034 0.859464C218.904 0.885506 215.92 2.16676 213.743 4.4168L190.409 27.7501C188.159 29.9272 186.878 32.9116 186.852 36.0419C186.821 39.1721 188.055 42.1825 190.269 44.3908C192.477 46.6044 195.487 47.8387 198.618 47.8075C201.748 47.7814 204.732 46.5002 206.909 44.2501L210.326 40.8335L310.493 141H81.986C60.3353 141.026 39.574 149.636 24.2673 164.948C8.95533 180.255 0.346003 201.016 0.319336 222.667V549.333C0.345377 570.984 8.9548 591.745 24.2673 607.052C39.574 622.364 60.3353 630.973 81.986 631H93.6527V666C93.6527 672.443 98.8767 677.667 105.319 677.667C111.762 677.667 116.986 672.443 116.986 666V631H560.319V666C560.319 672.443 565.543 677.667 571.986 677.667C578.429 677.667 583.653 672.443 583.653 666V631H595.319C616.97 630.974 637.731 622.365 653.038 607.052C668.35 591.745 676.959 570.984 676.986 549.333V222.667C676.96 201.016 668.351 180.255 653.038 164.948C637.731 149.636 616.97 141.027 595.319 141H595.333ZM653.666 549.333C653.65 564.797 647.494 579.625 636.562 590.563C625.625 601.495 610.797 607.651 595.333 607.667H81.9993C66.5353 607.651 51.7073 601.495 40.77 590.563C29.8377 579.625 23.682 564.797 23.666 549.333V222.667C23.6816 207.203 29.8379 192.375 40.77 181.437C51.7075 170.505 66.5353 164.349 81.9993 164.333H595.333C610.797 164.349 625.625 170.505 636.562 181.437C647.494 192.375 653.65 207.203 653.666 222.667V549.333Z" fill="black"/>
<path d="M525.333 187.667H152C124.161 187.698 97.4733 198.771 77.7867 218.454C58.104 238.142 47.032 264.828 47 292.667V479.334C47.0313 507.172 58.1041 533.86 77.7867 553.547C97.4747 573.23 124.161 584.302 152 584.334H525.333C553.172 584.302 579.86 573.23 599.547 553.547C619.229 533.859 630.301 507.172 630.333 479.334V292.667C630.302 264.828 619.229 238.14 599.547 218.454C579.859 198.771 553.172 187.699 525.333 187.667ZM607 479.334C606.974 500.984 598.365 521.746 583.052 537.052C567.745 552.364 546.984 560.974 525.333 561H152C130.349 560.974 109.588 552.365 94.2813 537.052C78.9693 521.746 70.36 500.984 70.3333 479.334V292.667C70.3594 271.016 78.9688 250.255 94.2813 234.948C109.588 219.636 130.349 211.027 152 211H525.333C546.984 211.026 567.745 219.636 583.052 234.948C598.364 250.255 606.973 271.016 607 292.667V479.334Z" fill="black"/>
<path d="M280.333 327.667C273.89 327.667 268.666 332.891 268.666 339.334V432.667C268.666 439.11 273.89 444.334 280.333 444.334C286.775 444.334 291.999 439.11 291.999 432.667V339.334C291.999 336.24 290.77 333.271 288.583 331.084C286.395 328.896 283.426 327.667 280.333 327.667Z" fill="black"/>
<path d="M210.333 421H175.333V339.334C175.333 332.891 170.109 327.667 163.667 327.667C157.224 327.667 152 332.891 152 339.334V432.667C152 435.761 153.229 438.73 155.417 440.917C157.604 443.104 160.573 444.334 163.667 444.334H210.333C216.776 444.334 222 439.11 222 432.667C222 426.224 216.776 421 210.333 421Z" fill="black"/>
<path d="M490.332 351H513.666C520.108 351 525.332 345.776 525.332 339.334C525.332 332.891 520.108 327.667 513.666 327.667H490.332C481.051 327.677 472.155 331.37 465.592 337.927C459.035 344.49 455.342 353.386 455.332 362.667V409.334C455.342 418.615 459.035 427.511 465.592 434.074C472.155 440.631 481.051 444.324 490.332 444.334H513.666C520.108 444.334 525.332 439.11 525.332 432.668C525.332 426.225 520.108 421.001 513.666 421.001H490.332C483.89 420.996 478.671 415.777 478.666 409.334V397.668H513.666C520.108 397.668 525.332 392.444 525.332 386.001C525.332 379.558 520.108 374.334 513.666 374.334H478.666V362.668C478.671 356.225 483.89 351.006 490.332 351.001V351Z" fill="black"/>
<path d="M397 327.667C390.557 327.667 385.333 332.891 385.333 339.334V376.334C385.369 389.927 381.302 403.214 373.666 414.454C366.031 403.214 361.963 389.927 362 376.334V339.334C362 332.891 356.776 327.667 350.333 327.667C343.89 327.667 338.666 332.891 338.666 339.334V376.334C338.604 400.568 348.234 423.823 365.416 440.918C367.603 443.105 370.572 444.334 373.666 444.334C376.759 444.334 379.728 443.105 381.916 440.918C399.098 423.824 408.728 400.568 408.665 376.334V339.334C408.665 336.24 407.436 333.271 405.248 331.084C403.061 328.896 400.092 327.667 396.998 327.667H397Z" fill="black"/>
</svg>
