<svg width="498" height="655" viewBox="0 0 498 655" fill="none" xmlns="http://www.w3.org/2000/svg">
<path d="M149.879 654H347.466H347.461C389.419 654.005 429.45 636.407 457.81 605.484C486.17 574.567 500.258 533.167 496.633 491.364L482.117 323.511C479.632 293.073 467.835 264.136 448.33 240.636C428.83 217.131 402.565 200.204 373.106 192.147V125.111C373.106 80.652 349.387 39.5747 310.887 17.3453C272.387 -4.88399 224.95 -4.88399 186.45 17.3453C147.95 39.5747 124.231 80.652 124.231 125.111V192.147C94.794 200.225 68.5487 217.168 49.07 240.673C29.586 264.179 17.81 293.105 15.3353 323.537L0.704672 491.377C-2.9204 533.18 11.1683 574.58 39.5273 605.497C67.8873 636.419 107.918 654.019 149.877 654.013L149.879 654ZM170.879 125.107C170.879 97.32 185.702 71.648 209.765 57.752C233.827 43.8613 263.473 43.8613 287.53 57.752C311.593 71.648 326.415 97.32 326.415 125.107V186.705H170.895L170.879 125.107ZM61.6819 327.547H61.6767C63.7808 301.807 75.526 277.807 94.5567 260.344C113.593 242.885 138.515 233.256 164.343 233.375H332.903C358.731 233.25 383.658 242.88 402.695 260.339C421.726 277.803 433.471 301.803 435.57 327.547L450.086 495.387H450.081C452.586 524.163 442.899 552.673 423.383 573.965C403.862 595.263 376.305 607.387 347.414 607.387H149.881C120.99 607.387 93.4328 595.262 73.9115 573.965C54.3955 552.673 44.7088 524.163 47.2141 495.387L61.6819 327.547Z" fill="black"/>
<path d="M223.398 430.187V479.327C223.398 488.353 228.216 496.696 236.034 501.212C243.852 505.722 253.487 505.722 261.305 501.212C269.122 496.696 273.94 488.353 273.94 479.327V430.187C286.878 422.718 295.847 409.905 298.44 395.192C301.034 380.479 296.987 365.375 287.383 353.932C277.784 342.489 263.607 335.88 248.669 335.88C233.732 335.88 219.555 342.489 209.956 353.932C200.352 365.375 196.305 380.479 198.899 395.192C201.493 409.905 210.461 422.719 223.398 430.187Z" fill="black"/>
</svg>
