<svg width="673" height="598" viewBox="0 0 673 598" fill="none" xmlns="http://www.w3.org/2000/svg">
<path d="M194.799 0.708008C80.4927 0.708008 0.666016 95.3227 0.666016 209.775C0.666016 304.972 38.0927 375.815 97.03 433.775C155.973 491.733 235.403 538.692 324.763 594.535C328.331 596.769 332.456 597.957 336.664 597.957C340.873 597.957 344.998 596.769 348.565 594.535C437.929 538.685 517.352 491.728 576.299 433.775C635.236 375.811 672.663 304.972 672.663 209.775C672.663 95.3267 592.835 0.708008 478.53 0.708008C416.04 0.708008 366.691 28.6147 336.663 53.4427C306.632 28.6147 257.283 0.708008 194.796 0.708008H194.799ZM194.799 45.5107C252.19 45.5107 302.898 80.3907 320.565 98.48V98.4748C324.784 102.839 330.596 105.303 336.663 105.303C342.731 105.303 348.544 102.839 352.762 98.4748C370.429 80.3868 421.137 45.5055 478.527 45.5055C568.861 45.5055 627.861 115.156 627.861 209.772C627.861 293.772 598.085 349.625 545.027 401.799C494.506 451.476 421.033 496.424 336.667 549.039C252.298 496.429 178.827 451.487 128.307 401.799C75.25 349.627 45.474 293.768 45.474 209.772C45.474 115.152 104.474 45.5055 194.807 45.5055L194.799 45.5107Z" fill="black"/>
</svg>
