<svg width="561" height="125" viewBox="0 0 561 125" fill="none" xmlns="http://www.w3.org/2000/svg">
<path d="M125.106 62.3334C125.106 96.6974 97.2462 124.557 62.8822 124.557C28.5182 124.557 0.658203 96.6974 0.658203 62.3334C0.658203 27.9694 28.5182 0.109375 62.8822 0.109375C97.2515 0.109375 125.106 27.9694 125.106 62.3334ZM280.666 0.109375C246.302 0.109375 218.442 27.9694 218.442 62.3334C218.442 96.6974 246.302 124.557 280.666 124.557C315.03 124.557 342.89 96.6974 342.89 62.3334C342.89 27.9694 315.03 0.109375 280.666 0.109375ZM498.44 0.109375C464.076 0.109375 436.216 27.9694 436.216 62.3334C436.216 96.6974 464.076 124.557 498.44 124.557C532.804 124.557 560.664 96.6974 560.664 62.3334C560.664 27.9694 532.804 0.109375 498.44 0.109375Z" fill="black"/>
</svg>
