<svg width="396" height="572" viewBox="0 0 396 572" fill="none" xmlns="http://www.w3.org/2000/svg">
<path d="M329.426 0.843994H65.893C48.4197 0.843994 31.6637 7.78666 19.309 20.1413C6.94971 32.4955 0.0117188 49.2507 0.0117188 66.7253V549.872C0.0117188 555.336 2.04812 560.606 5.72532 564.648C9.40239 568.69 14.4545 571.216 19.8973 571.731C25.34 572.247 30.7776 570.716 35.148 567.44L197.655 445.336L360.161 567.44C364.531 570.716 369.969 572.247 375.412 571.731C380.855 571.216 385.907 568.69 389.584 564.648C393.261 560.606 395.298 555.335 395.298 549.872V66.7253C395.298 49.252 388.36 32.496 376 20.1413C363.646 7.78719 346.891 0.843994 329.416 0.843994H329.426ZM351.385 505.937L210.838 400.525C207.036 397.671 202.411 396.129 197.661 396.129C192.911 396.129 188.286 397.671 184.484 400.525L43.9376 505.937V66.724C43.9376 60.9011 46.2501 55.3177 50.3699 51.1973C54.4844 47.0776 60.0729 44.7651 65.8965 44.7651H329.43C335.253 44.7651 340.841 47.0776 344.957 51.1973C349.076 55.3171 351.389 60.9004 351.389 66.724L351.385 505.937Z" fill="black"/>
</svg>
