<svg width="441" height="520" viewBox="0 0 441 520" fill="none" xmlns="http://www.w3.org/2000/svg">
<path d="M440.88 30.7869V29.9848C440.88 14.7448 427.464 0.0887896 411.714 0.818123C395.891 1.54728 382.547 13.6515 382.547 29.9848V208.705C354.11 191.497 325.38 174.289 296.87 157.079C260.12 134.913 223.37 112.746 186.692 90.5795C154.974 71.4021 123.255 52.2981 91.463 33.1208C76.0777 23.7875 60.7657 14.3088 45.2337 5.19412C45.0149 5.04828 44.7232 4.90246 44.5045 4.82954C25.4738 -6.69126 0.535156 8.11073 0.535156 29.9855V433.866V489.866V490.668C0.535156 492.199 0.753906 493.803 1.04557 495.334C1.92057 500.365 4.25382 505.178 7.53516 509.189C7.53516 509.262 7.60808 509.262 7.68099 509.335C13.5143 515.897 21.8263 519.762 30.285 519.835C35.1705 519.835 40.0558 518.595 44.577 515.897C57.2645 508.241 69.9517 500.585 82.6397 492.928C113.118 474.553 143.598 456.179 174.004 437.803C210.681 415.636 247.43 393.469 284.181 371.303C315.9 352.125 347.765 333.021 379.484 313.844C380.504 313.261 381.161 312.677 382.619 312.021V433.865C382.619 452.532 382.255 471.198 382.473 489.865C382.473 490.157 382.4 490.375 382.4 490.667C382.4 505.907 395.89 520.563 411.64 519.834C427.463 519.105 440.88 507 440.88 490.667V86.7871L440.88 30.7869Z" fill="black"/>
</svg>
