<svg width="262" height="307" viewBox="0 0 262 307" fill="none" xmlns="http://www.w3.org/2000/svg">
<path d="M261.334 295.2C261.334 301.387 256.318 306.403 250.136 306.403C243.948 306.403 238.933 301.387 238.933 295.2C238.933 235.408 190.459 186.935 130.667 186.935C70.8753 186.935 22.4019 235.408 22.4019 295.2C22.4019 301.387 17.3863 306.403 11.1988 306.403C5.01657 306.403 0.000976562 301.387 0.000976562 295.2C0.000976562 223.039 58.501 164.533 130.668 164.533C202.834 164.533 261.334 223.039 261.334 295.2H261.334ZM130.667 157.067C87.3695 157.067 52.2655 121.963 52.2655 78.6652C52.2655 35.3679 87.3695 0.263916 130.667 0.263916C173.964 0.263916 209.068 35.3679 209.068 78.6652C209.068 121.963 173.964 157.067 130.667 157.067ZM130.667 134.665C161.594 134.665 186.667 109.592 186.667 78.6652C186.667 47.7386 161.594 22.6652 130.667 22.6652C99.7402 22.6652 74.6669 47.7386 74.6669 78.6652C74.6669 109.592 99.7402 134.665 130.667 134.665Z" fill="black"/>
</svg>
