<svg width="685" height="685" viewBox="0 0 685 685" fill="none" xmlns="http://www.w3.org/2000/svg">
<rect x="111" y="112" width="463" height="460" fill="white"/>
<path d="M342.667 0.109375C251.907 0.109375 164.853 36.1667 100.68 100.344C36.5026 164.527 0.445312 251.571 0.445312 342.331C0.445312 433.091 36.5026 520.144 100.68 584.317C164.863 648.495 251.907 684.552 342.667 684.552C433.427 684.552 520.48 648.495 584.653 584.317C648.831 520.135 684.888 433.091 684.888 342.331C684.779 251.601 648.691 164.611 584.533 100.464C520.377 36.308 433.387 0.218708 342.667 0.109375V0.109375ZM498.227 373.443H373.779V497.891C373.779 509.005 367.852 519.276 358.227 524.833C348.602 530.391 336.737 530.391 327.112 524.833C317.487 519.276 311.56 509.005 311.56 497.891V373.443H187.112C175.997 373.443 165.727 367.516 160.169 357.891C154.612 348.266 154.612 336.401 160.169 326.776C165.727 317.151 175.997 311.224 187.112 311.224H311.555L311.56 186.776C311.56 175.662 317.487 165.391 327.112 159.833C336.737 154.276 348.601 154.276 358.227 159.833C367.852 165.391 373.778 175.661 373.778 186.776V311.219H498.221L498.226 311.224C509.341 311.224 519.612 317.151 525.169 326.776C530.726 336.401 530.726 348.265 525.169 357.891C519.612 367.516 509.341 373.443 498.226 373.443L498.227 373.443Z" fill="#D54040"/>
</svg>
