<svg width="396" height="457" viewBox="0 0 396 457" fill="none" xmlns="http://www.w3.org/2000/svg">
<path d="M373.732 190.254L67.5986 6.57357C53.4106 -1.64003 36.9839 -2.38484 22.7959 5.82878C8.60788 14.0424 0.394531 28.2301 0.394531 44.6568V411.27C0.394531 427.697 8.60814 441.885 22.7959 450.098C29.5147 453.833 36.9839 456.072 45.1972 456.072C53.4108 456.072 60.8799 453.833 68.3425 449.353L373.729 266.407C387.167 258.193 395.38 244.005 395.38 228.328C395.38 212.645 387.166 197.713 373.729 190.249L373.732 190.254ZM358.049 241.024L52.6625 424.704C45.9437 428.439 39.9699 426.199 37.7305 424.704C35.4909 423.209 30.2617 419.475 30.2617 412.012V44.6516C30.2617 36.438 35.4909 32.7037 37.7305 31.9589C39.2253 31.2141 41.4649 29.7193 45.1993 29.7193C47.4389 29.7193 50.4285 30.4641 52.6681 31.9589L358.055 215.639C364.774 219.373 365.524 226.092 365.524 228.332C365.518 230.571 364.768 237.29 358.049 241.024Z" fill="black"/>
</svg>
