<svg width="441" height="520" viewBox="0 0 441 520" fill="none" xmlns="http://www.w3.org/2000/svg">
<path d="M0.000556538 489.073V489.876C0.000556538 505.116 13.4165 519.772 29.1672 519.042C44.9899 518.313 58.3339 506.209 58.3339 489.876V311.156C86.7712 328.364 115.501 345.572 144.011 362.781C180.761 384.948 217.511 407.114 254.189 429.281C285.907 448.458 317.626 467.562 349.418 486.74C364.803 496.073 380.115 505.552 395.647 514.666C395.866 514.812 396.158 514.958 396.376 515.031C415.407 526.552 440.346 511.75 440.346 489.875L440.346 85.9948V29.9948V29.1927C440.346 27.6615 440.127 26.0573 439.835 24.5261C438.96 19.4949 436.627 14.6823 433.346 10.6714C433.346 10.5985 433.273 10.5985 433.2 10.5256C427.367 3.96305 419.055 0.0985119 410.596 0.0255786C405.71 0.0255786 400.825 1.26516 396.304 3.96304C383.616 11.6193 370.929 19.275 358.241 26.9324C327.763 45.307 297.283 63.6817 266.877 82.0577C230.2 104.224 193.451 126.391 156.7 148.558C124.981 167.735 93.1159 186.839 61.3972 206.016C60.3764 206.6 59.7201 207.183 58.2617 207.839V85.9953C58.2617 67.3286 58.6263 48.662 58.4076 29.9953C58.4076 29.7036 58.4805 29.4849 58.4805 29.1932C58.4805 13.9532 44.9911 -0.702778 29.2405 0.0265552C13.4178 0.755715 0.000475158 12.8599 0.000475158 29.1932L0.000475158 433.073L0.000556538 489.073Z" fill="black"/>
</svg>
