<svg width="628" height="628" viewBox="0 0 628 628" fill="none" xmlns="http://www.w3.org/2000/svg">
<path d="M388.333 538.334V598.068H328.598V538.334H298.734V478.599H388.333V538.334ZM597.4 538.334V598.068H448.066V538.334H537.665V478.599H477.93V418.864H448.066V359.135H507.801V418.864H597.4V538.334ZM179.266 299.4H119.532V239.666H239.001V388.999H179.266V299.4ZM537.666 299.4V239.666H597.401V359.135H507.801L507.802 299.4H537.666ZM328.6 150.067H298.736V90.3322H388.334V209.802H328.6V150.067ZM477.933 60.4682H567.532V150.067H477.933V60.4682ZM29.9331 448.735V598.068H179.266V448.735H29.9331ZM209.133 418.866V627.932H0.0664062V418.866H209.133ZM29.9331 30.5989V179.932H179.266V30.5989H29.9331ZM209.133 0.734863V209.802H0.0664062V0.734863H209.133ZM448.066 30.5989V179.932H597.4V30.5989H448.066ZM627.266 0.734863V209.802H418.2V0.734863H627.266ZM59.7997 60.4695H149.398V150.068H59.7997V60.4695ZM59.7997 478.603H149.398V568.202H59.7997V478.603ZM239 30.6029H298.734V90.3375H239V30.6029ZM239 150.072H298.734V239.671H239V150.072ZM298.734 239.671H388.333V299.406H298.734V239.671ZM388.333 299.406H448.068V359.14H388.333V299.406ZM29.9331 329.27H149.402V389.004H29.9331V329.27ZM448.066 239.671H507.801V299.406H448.068L448.066 239.671ZM29.9331 239.671H89.6677V299.406H29.9331V239.671ZM298.733 359.14H388.332V418.87H298.733V359.14ZM388.332 418.87H448.066V478.604H388.332V418.87ZM238.998 538.339H298.733V598.074H238.998V538.339ZM238.998 418.87H298.733V478.604H238.998V418.87Z" fill="black"/>
</svg>
