<svg width="597" height="523" viewBox="0 0 597 523" fill="none" xmlns="http://www.w3.org/2000/svg">
<path d="M0.453125 349.88V507.534C0.453125 523.466 22.0678 528.32 28.8798 513.919L53.7131 461.46C91.9891 380.586 173.453 329.018 262.926 329.018H284.88C293.13 329.018 299.817 335.705 299.817 343.95V401.83C299.817 426.747 328.53 440.71 348.129 425.314L584.769 239.46C599.993 227.502 599.993 204.439 584.769 192.482L348.129 6.6149C328.53 -8.77576 299.817 5.18264 299.817 30.1042V110.948C299.817 119.193 293.13 125.88 284.88 125.88H224.453C100.74 125.88 0.453125 226.167 0.453125 349.88V349.88Z" fill="black"/>
</svg>
