<svg width="465" height="465" viewBox="0 0 465 465" fill="none" xmlns="http://www.w3.org/2000/svg">
<path d="M194.8 389.133C238.545 389.159 281.008 374.341 315.237 347.092L432.836 464.696L464.492 433.04L346.893 315.436C383.524 269.129 397.087 208.665 383.753 151.156C370.415 93.6346 331.628 45.312 278.357 19.8533C225.081 -5.61071 163.117 -5.44939 109.984 20.3012C56.8482 46.0465 18.3228 94.5719 5.29081 152.161C-7.74039 209.749 6.14497 270.14 43.0201 316.255C79.9001 362.369 135.755 389.192 194.807 389.145L194.8 389.133ZM194.8 45.6666C234.404 45.6666 272.388 61.4013 300.394 89.4066C328.399 117.412 344.133 155.396 344.133 195C344.133 234.604 328.399 272.588 300.394 300.593C272.388 328.599 234.404 344.333 194.8 344.333C155.191 344.333 117.207 328.599 89.2015 300.593C61.1961 272.588 45.4668 234.604 45.4668 195C45.4668 155.396 61.1961 117.412 89.2015 89.4066C117.207 61.4013 155.191 45.6666 194.8 45.6666Z" fill="black"/>
</svg>
