<svg width="623" height="623" viewBox="0 0 623 623" fill="none" xmlns="http://www.w3.org/2000/svg">
<path d="M62.7734 93.5599C62.7734 76.3772 76.7054 62.4452 93.888 62.4452H171.664C188.847 62.4452 202.773 48.5186 202.773 31.3359C202.773 14.1532 188.847 0.226562 171.664 0.226562H93.888C42.3414 0.226562 0.554688 42.0132 0.554688 93.5599V171.336C0.554688 188.519 14.4814 202.445 31.664 202.445C48.8467 202.445 62.7734 188.519 62.7734 171.336V93.5599Z" fill="black"/>
<path d="M451.667 0.223633C434.484 0.223633 420.558 14.1503 420.558 31.333C420.558 48.5156 434.484 62.4423 451.667 62.4423H529.443C546.626 62.4423 560.558 76.3743 560.558 93.557V171.333C560.558 188.516 574.484 202.442 591.667 202.442C608.85 202.442 622.776 188.516 622.776 171.333V93.557C622.776 42.0103 580.995 0.223633 529.443 0.223633H451.667Z" fill="black"/>
<path d="M62.7734 451.333C62.7734 434.15 48.8467 420.224 31.664 420.224C14.4814 420.224 0.554688 434.15 0.554688 451.333V529.109C0.554688 580.661 42.3414 622.442 93.888 622.442H171.664C188.847 622.442 202.773 608.516 202.773 591.333C202.773 574.15 188.847 560.224 171.664 560.224H93.888C76.7054 560.224 62.7734 546.292 62.7734 529.109V451.333Z" fill="black"/>
<path d="M622.773 451.333C622.773 434.15 608.846 420.224 591.664 420.224C574.481 420.224 560.554 434.15 560.554 451.333V529.109C560.554 546.292 546.622 560.224 529.44 560.224H467.221C450.038 560.224 436.106 574.15 436.106 591.333C436.106 608.516 450.038 622.442 467.221 622.442H529.44C580.992 622.442 622.773 580.661 622.773 529.109V451.333Z" fill="black"/>
<path d="M31.667 280.227C14.4843 280.227 0.557617 294.153 0.557617 311.336C0.557617 328.519 14.4843 342.445 31.667 342.445H591.667C608.85 342.445 622.776 328.519 622.776 311.336C622.776 294.153 608.85 280.227 591.667 280.227H31.667Z" fill="black"/>
</svg>
