<svg width="673" height="471" viewBox="0 0 673 471" fill="none" xmlns="http://www.w3.org/2000/svg">
<path fill-rule="evenodd" clip-rule="evenodd" d="M98.5998 9.11989C46.5731 13.2084 7.25045 55.5106 4.71979 107.636C2.63125 150.584 0.672852 200 0.672852 234.115C0.672852 268.62 2.67805 318.787 4.79258 362.068C7.30298 413.527 45.7246 455.547 97.0273 460.287C153.814 465.526 235.974 470.807 336.667 470.807C437.099 470.807 519.094 465.557 575.867 460.328C627.367 455.583 665.867 413.287 668.341 361.631C670.528 316.058 672.664 263.912 672.664 234.115C672.664 204.642 670.575 153.292 668.414 108.074C665.914 55.7455 626.528 13.1828 574.304 9.0895C518.408 4.70923 437.784 0.407227 336.664 0.407227C235.284 0.407227 154.504 4.73016 98.5975 9.12083L98.5998 9.11989ZM269.48 134.38L442.706 234.115L269.48 333.855V134.38Z" fill="black"/>
</svg>
